{
  "accessors": [
    {
      "bufferView": 2,
      "componentType": 5126,
      "count": 10488,
      "max": [
        24.298610687255859,
        30.675018310546875,
        95.927886962890625
      ],
      "min": [
        -24.298603057861328,
        -24.973621368408203,
        -7.9999999798019417e-06
      ],
      "type": "VEC3"
    },
    {
      "bufferView": 2,
      "byteOffset": 125856,
      "componentType": 5126,
      "count": 10488,
      "max": [
        1,
        1,
        1
      ],
      "min": [
        -1,
        -1,
        -1
      ],
      "type": "VEC3"
    },
    {
      "bufferView": 3,
      "componentType": 5126,
      "count": 10488,
      "max": [
        1,
        1,
        1,
        1
      ],
      "min": [
        -1,
        -1,
        -1,
        -1
      ],
      "type": "VEC4"
    },
    {
      "bufferView": 1,
      "componentType": 5126,
      "count": 10488,
      "max": [
        1.3809080123901367,
        1.3652709722518921
      ],
      "min": [
        -0.38090801239013672,
        -0.37658399343490601
      ],
      "type": "VEC2"
    },
    {
      "bufferView": 0,
      "componentType": 5125,
      "count": 37929,
      "max": [
        10487
      ],
      "min": [
        0
      ],
      "type": "SCALAR"
    },
    {
      "bufferView": 2,
      "byteOffset": 251712,
      "componentType": 5126,
      "count": 1271,
      "max": [
        21.400001525878906,
        27.897941589355469,
        92.228836059570312
      ],
      "min": [
        -21.399995803833008,
        -22.6217041015625,
        42.300804138183594
      ],
      "type": "VEC3"
    },
    {
      "bufferView": 2,
      "byteOffset": 266964,
      "componentType": 5126,
      "count": 1271,
      "max": [
        1,
        1,
        1
      ],
      "min": [
        -1,
        -1,
        -1
      ],
      "type": "VEC3"
    },
    {
      "bufferView": 0,
      "byteOffset": 151716,
      "componentType": 5125,
      "count": 3342,
      "max": [
        1270
      ],
      "min": [
        0
      ],
      "type": "SCALAR"
    },
    {
      "bufferView": 2,
      "byteOffset": 282216,
      "componentType": 5126,
      "count": 10372,
      "max": [
        23.134048461914062,
        30.322124481201172,
        92.581214904785156
      ],
      "min": [
        -23.134048461914062,
        -25.030586242675781,
        40.413230895996094
      ],
      "type": "VEC3"
    },
    {
      "bufferView": 2,
      "byteOffset": 406680,
      "componentType": 5126,
      "count": 10372,
      "max": [
        0.99995934963226318,
        1,
        0.99999988079071045
      ],
      "min": [
        -0.99995934963226318,
        -1,
        -1
      ],
      "type": "VEC3"
    },
    {
      "bufferView": 3,
      "byteOffset": 167808,
      "componentType": 5126,
      "count": 10372,
      "max": [
        0.99999898672103882,
        0.99929040670394897,
        0.99987435340881348,
        1
      ],
      "min": [
        -1,
        -0.99918460845947266,
        -0.99989432096481323,
        -1
      ],
      "type": "VEC4"
    },
    {
      "bufferView": 1,
      "byteOffset": 83904,
      "componentType": 5126,
      "count": 10372,
      "max": [
        0.92822897434234619,
        0.92863500118255615
      ],
      "min": [
        0.043637998402118683,
        0.13140599429607391
      ],
      "type": "VEC2"
    },
    {
      "bufferView": 0,
      "byteOffset": 165084,
      "componentType": 5125,
      "count": 52842,
      "max": [
        10371
      ],
      "min": [
        0
      ],
      "type": "SCALAR"
    }
  ],
  "asset": {
    "extras": {
      "author": "Interiors3D (https://sketchfab.com/Interiors3D)",
      "license": "CC-BY-4.0 (http://creativecommons.org/licenses/by/4.0/)",
      "source": "https://sketchfab.com/3d-models/fc85-r49-53ac8960d44d42a0812c9023f3b22e4e",
      "title": "FC85-R49"
    },
    "generator": "Sketchfab-9.97.0",
    "version": "2.0"
  },
  "bufferViews": [
    {
      "buffer": 0,
      "byteLength": 376452,
      "byteOffset": 0,
      "name": "floatBufferViews",
      "target": 34963
    },
    {
      "buffer": 0,
      "byteLength": 166880,
      "byteOffset": 376452,
      "byteStride": 8,
      "name": "floatBufferViews",
      "target": 34962
    },
    {
      "buffer": 0,
      "byteLength": 531144,
      "byteOffset": 543332,
      "byteStride": 12,
      "name": "floatBufferViews",
      "target": 34962
    },
    {
      "buffer": 0,
      "byteLength": 333760,
      "byteOffset": 1074476,
      "byteStride": 16,
      "name": "floatBufferViews",
      "target": 34962
    }
  ],
  "buffers": [
    {
      "byteLength": 1408236,
      "uri": "scene.bin"
    }
  ],
  "images": [
    {
      "uri": "textures/Paint_baseColor.jpeg"
    },
    {
      "uri": "textures/Paint_metallicRoughness.png"
    },
    {
      "uri": "textures/Paint_normal.png"
    },
    {
      "uri": "textures/fabric.002_baseColor.jpeg"
    },
    {
      "uri": "textures/fabric.002_metallicRoughness.png"
    },
    {
      "uri": "textures/fabric.002_normal.png"
    }
  ],
  "materials": [
    {
      "doubleSided": true,
      "name": "Paint",
      "normalTexture": {
        "index": 2,
        "scale": 1,
        "texCoord": 0
      },
      "pbrMetallicRoughness": {
        "baseColorFactor": [
          1,
          1,
          1,
          1
        ],
        "baseColorTexture": {
          "index": 0,
          "texCoord": 0
        },
        "metallicFactor": 0,
        "metallicRoughnessTexture": {
          "index": 1,
          "texCoord": 0
        },
        "roughnessFactor": 1
      }
    },
    {
      "doubleSided": true,
      "emissiveFactor": [
        0,
        0,
        0
      ],
      "name": "back",
      "pbrMetallicRoughness": {
        "baseColorFactor": [
          0.56881625875769515,
          0.55748157552562361,
          0.55748157552562361,
          1
        ],
        "metallicFactor": 0,
        "roughnessFactor": 1
      }
    },
    {
      "doubleSided": true,
      "name": "fabric.002",
      "normalTexture": {
        "index": 5,
        "scale": 0.40000000000000002,
        "texCoord": 0
      },
      "pbrMetallicRoughness": {
        "baseColorFactor": [
          0.90000000000000002,
          0.90000000000000002,
          0.90000000000000002,
          1
        ],
        "baseColorTexture": {
          "index": 3,
          "texCoord": 0
        },
        "metallicFactor": 0,
        "metallicRoughnessTexture": {
          "index": 4,
          "texCoord": 0
        },
        "roughnessFactor": 1
      }
    }
  ],
  "meshes": [
    {
      "primitives": [
        {
          "attributes": {
            "NORMAL": 1,
            "POSITION": 0,
            "TANGENT": 2,
            "TEXCOORD_0": 3
          },
          "indices": 4,
          "material": 0,
          "mode": 4
        }
      ]
    },
    {
      "primitives": [
        {
          "attributes": {
            "NORMAL": 6,
            "POSITION": 5
          },
          "indices": 7,
          "material": 1,
          "mode": 4
        }
      ]
    },
    {
      "primitives": [
        {
          "attributes": {
            "NORMAL": 9,
            "POSITION": 8,
            "TANGENT": 10,
            "TEXCOORD_0": 11
          },
          "indices": 12,
          "material": 2,
          "mode": 4
        }
      ]
    }
  ],
  "nodes": [
    {
      "children": [
        1
      ],
      "name": "RootNode (gltf orientation matrix)",
      "rotation": [
        -0.70710678118654746,
        -0,
        -0,
        0.70710678118654757
      ]
    },
    {
      "children": [
        2
      ],
      "name": "RootNode (model correction matrix)"
    },
    {
      "children": [
        3,
        4,
        5
      ],
      "name": "W53 - FC85-R49 - Sketchfab - mesh.obj.cleaner.materialmerger.gles"
    },
    {
      "mesh": 0,
      "name": ""
    },
    {
      "mesh": 1,
      "name": ""
    },
    {
      "mesh": 2,
      "name": ""
    }
  ],
  "samplers": [
    {
      "magFilter": 9729,
      "minFilter": 9987,
      "wrapS": 10497,
      "wrapT": 10497
    }
  ],
  "scene": 0,
  "scenes": [
    {
      "name": "OSG_Scene",
      "nodes": [
        0
      ]
    }
  ],
  "textures": [
    {
      "sampler": 0,
      "source": 0
    },
    {
      "sampler": 0,
      "source": 1
    },
    {
      "sampler": 0,
      "source": 2
    },
    {
      "sampler": 0,
      "source": 3
    },
    {
      "sampler": 0,
      "source": 4
    },
    {
      "sampler": 0,
      "source": 5
    }
  ]
}

